<?xml version="1.0" encoding="UTF-8" standalone="no"?>
<!-- Created by diasvg.py -->
<svg width="57.915cm" height="30.150cm" viewBox="7.550 5.450 65.465 35.600"
 xmlns="http://www.w3.org/2000/svg"
 xmlns:xlink="http://www.w3.org/1999/xlink">
<path stroke="none" fill="#FFFFFF" stroke-width="0.100" d="M 17.050,15.650 L 23.750,15.650 L 23.750,23.090 L 20.400,24.950 L 17.050,23.090 L 17.050,15.650 "/>
<path stroke="#000000" fill="none" stroke-width="0.100"  d="M 17.050,15.650 L 23.750,15.650 L 23.750,23.090 L 20.400,24.950 L 17.050,23.090 L 17.050,15.650 "/>
<text x="20.400" y="19.570"  fill="#000000" text-anchor="middle" font-size="0.80" font-family="sans" font-style="normal" font-weight="400">
Dispatcher</text>
<path stroke="none" fill="#FFFFFF" stroke-width="0.100" d="M 49.333,15.750 L 58.000,15.750 C 56.700,17.140 56.267,17.835 56.267,19.225 C 56.267,20.615 56.700,21.310 58.000,22.700 L 49.333,22.700 C 48.033,21.310 47.600,20.615 47.600,19.225 C 47.600,17.835 48.033,17.140 49.333,15.750 "/>
<path stroke="#000000" fill="none" stroke-width="0.100"  d="M 49.333,15.750 L 58.000,15.750 C 56.700,17.140 56.267,17.835 56.267,19.225 C 56.267,20.615 56.700,21.310 58.000,22.700 L 49.333,22.700 C 48.033,21.310 47.600,20.615 47.600,19.225 C 47.600,17.835 48.033,17.140 49.333,15.750 "/>
<text x="52.800" y="19.425"  fill="#000000" text-anchor="middle" font-size="0.80" font-family="sans" font-style="normal" font-weight="400">
Runner</text>
<path stroke="none" fill="#FFFFFF" stroke-width="0.100" d="M 60.233,16.800 L 65.150,16.800 C 64.413,17.040 64.167,17.160 64.167,17.400 C 64.167,17.640 64.413,17.760 65.150,18.000 L 60.233,18.000 C 59.496,17.760 59.250,17.640 59.250,17.400 C 59.250,17.160 59.496,17.040 60.233,16.800 "/>
<path stroke="#000000" fill="none" stroke-width="0.100"  d="M 60.233,16.800 L 65.150,16.800 C 64.413,17.040 64.167,17.160 64.167,17.400 C 64.167,17.640 64.413,17.760 65.150,18.000 L 60.233,18.000 C 59.496,17.760 59.250,17.640 59.250,17.400 C 59.250,17.160 59.496,17.040 60.233,16.800 "/>
<text x="62.200" y="17.600"  fill="#000000" text-anchor="middle" font-size="0.80" font-family="sans" font-style="normal" font-weight="400">
Crawler</text>
<path stroke="none" fill="#FFFFFF" stroke-width="0.100" d="M 60.123,18.465 L 65.040,18.465 C 64.303,18.705 64.057,18.825 64.057,19.065 C 64.057,19.305 64.303,19.425 65.040,19.665 L 60.123,19.665 C 59.386,19.425 59.140,19.305 59.140,19.065 C 59.140,18.825 59.386,18.705 60.123,18.465 "/>
<path stroke="#000000" fill="none" stroke-width="0.100"  d="M 60.123,18.465 L 65.040,18.465 C 64.303,18.705 64.057,18.825 64.057,19.065 C 64.057,19.305 64.303,19.425 65.040,19.665 L 60.123,19.665 C 59.386,19.425 59.140,19.305 59.140,19.065 C 59.140,18.825 59.386,18.705 60.123,18.465 "/>
<text x="62.090" y="19.265"  fill="#000000" text-anchor="middle" font-size="0.80" font-family="sans" font-style="normal" font-weight="400">
Parser</text>
<path stroke="none" fill="#FFFFFF" stroke-width="0.100" d="M 60.123,20.215 L 65.040,20.215 C 64.303,20.455 64.057,20.575 64.057,20.815 C 64.057,21.055 64.303,21.175 65.040,21.415 L 60.123,21.415 C 59.386,21.175 59.140,21.055 59.140,20.815 C 59.140,20.575 59.386,20.455 60.123,20.215 "/>
<path stroke="#000000" fill="none" stroke-width="0.100"  d="M 60.123,20.215 L 65.040,20.215 C 64.303,20.455 64.057,20.575 64.057,20.815 C 64.057,21.055 64.303,21.175 65.040,21.415 L 60.123,21.415 C 59.386,21.175 59.140,21.055 59.140,20.815 C 59.140,20.575 59.386,20.455 60.123,20.215 "/>
<text x="62.090" y="21.015"  fill="#000000" text-anchor="middle" font-size="0.80" font-family="sans" font-style="normal" font-weight="400">
Analyser</text>
<line x1="57.132" y1="17.471" x2="58.763" y2="17.416" stroke="#000000" stroke-width="0.100" />
<polygon fill="#000000" stroke="none" stroke-width="0.100" points="56.758,17.484 57.249,17.217 57.132,17.471 57.266,17.717 "/>
<polygon fill="none" stroke="#000000" stroke-width="0.100"  points="56.758,17.484 57.249,17.217 57.132,17.471 57.266,17.717 "/>
<polygon fill="#000000" stroke="none" stroke-width="0.100" points="59.138,17.404 58.647,17.670 58.763,17.416 58.630,17.171 "/>
<polygon fill="none" stroke="#000000" stroke-width="0.100"  points="59.138,17.404 58.647,17.670 58.763,17.416 58.630,17.171 "/>
<line x1="56.753" y1="19.198" x2="58.654" y2="19.092" stroke="#000000" stroke-width="0.100" />
<polygon fill="#000000" stroke="none" stroke-width="0.100" points="56.378,19.219 56.864,18.941 56.753,19.198 56.891,19.441 "/>
<polygon fill="none" stroke="#000000" stroke-width="0.100"  points="56.378,19.219 56.864,18.941 56.753,19.198 56.891,19.441 "/>
<polygon fill="#000000" stroke="none" stroke-width="0.100" points="59.028,19.071 58.543,19.349 58.654,19.092 58.515,18.849 "/>
<polygon fill="none" stroke="#000000" stroke-width="0.100"  points="59.028,19.071 58.543,19.349 58.654,19.092 58.515,18.849 "/>
<line x1="57.132" y1="20.934" x2="58.654" y2="20.844" stroke="#000000" stroke-width="0.100" />
<polygon fill="#000000" stroke="none" stroke-width="0.100" points="56.757,20.956 57.242,20.677 57.132,20.934 57.271,21.176 "/>
<polygon fill="none" stroke="#000000" stroke-width="0.100"  points="56.757,20.956 57.242,20.677 57.132,20.934 57.271,21.176 "/>
<polygon fill="#000000" stroke="none" stroke-width="0.100" points="59.028,20.822 58.544,21.101 58.654,20.844 58.515,20.602 "/>
<polygon fill="none" stroke="#000000" stroke-width="0.100"  points="59.028,20.822 58.544,21.101 58.654,20.844 58.515,20.602 "/>
<path stroke="none" fill="#FFFFFF" stroke-width="0.100" d="M 17.850,6.333 C 18.890,5.708 19.410,5.500 20.450,5.500 C 21.490,5.500 22.010,5.708 23.050,6.333 L 23.050,9.667 C 22.010,10.292 21.490,10.500 20.450,10.500 C 19.410,10.500 18.890,10.292 17.850,9.667 L 17.850,6.333 "/>
<path stroke="#000000" fill="none" stroke-width="0.100"  d="M 17.850,6.333 C 18.890,5.708 19.410,5.500 20.450,5.500 C 21.490,5.500 22.010,5.708 23.050,6.333 L 23.050,9.667 C 22.010,10.292 21.490,10.500 20.450,10.500 C 19.410,10.500 18.890,10.292 17.850,9.667 L 17.850,6.333 "/>
<path stroke="#000000" fill="none" stroke-width="0.100"  d="M 17.850,6.333 C 18.890,6.958 19.410,7.167 20.450,7.167 C 21.490,7.167 22.010,6.958 23.050,6.333 "/>
<text x="20.450" y="8.617"  fill="#000000" text-anchor="middle" font-size="0.80" font-family="sans" font-style="normal" font-weight="400">
Filer</text>
<line x1="20.405" y1="15.163" x2="20.445" y2="10.987" stroke="#000000" stroke-width="0.100" />
<polygon fill="#000000" stroke="none" stroke-width="0.100" points="20.401,15.538 20.156,15.036 20.405,15.163 20.656,15.041 "/>
<polygon fill="none" stroke="#000000" stroke-width="0.100"  points="20.401,15.538 20.156,15.036 20.405,15.163 20.656,15.041 "/>
<polygon fill="#000000" stroke="none" stroke-width="0.100" points="20.449,10.612 20.694,11.114 20.445,10.987 20.194,11.109 "/>
<polygon fill="none" stroke="#000000" stroke-width="0.100"  points="20.449,10.612 20.694,11.114 20.445,10.987 20.194,11.109 "/>
<path stroke="none" fill="#FFFFFF" stroke-width="0.100" d="M 7.600,17.350 L 13.100,17.350 L 13.100,21.207 C 12.000,20.564 11.450,20.564 10.350,21.207 C 9.250,21.850 8.700,21.850 7.600,21.207 L 7.600,17.350 "/>
<path stroke="#000000" fill="none" stroke-width="0.100"  d="M 7.600,17.350 L 13.100,17.350 L 13.100,21.207 C 12.000,20.564 11.450,20.564 10.350,21.207 C 9.250,21.850 8.700,21.850 7.600,21.207 L 7.600,17.350 "/>
<text x="10.350" y="18.757"  fill="#000000" text-anchor="middle" font-size="0.80" font-family="sans" font-style="normal" font-weight="400">
Front</text>
<text x="10.350" y="19.557"  fill="#000000" text-anchor="middle" font-size="0.80" font-family="sans" font-style="normal" font-weight="400">
Commander</text>
<line x1="13.587" y1="19.290" x2="16.563" y2="19.359" stroke="#000000" stroke-width="0.100" />
<polygon fill="#000000" stroke="none" stroke-width="0.100" points="13.212,19.281 13.717,19.043 13.587,19.290 13.706,19.543 "/>
<polygon fill="none" stroke="#000000" stroke-width="0.100"  points="13.212,19.281 13.717,19.043 13.587,19.290 13.706,19.543 "/>
<polygon fill="#000000" stroke="none" stroke-width="0.100" points="16.938,19.367 16.433,19.606 16.563,19.359 16.444,19.106 "/>
<polygon fill="none" stroke="#000000" stroke-width="0.100"  points="16.938,19.367 16.433,19.606 16.563,19.359 16.444,19.106 "/>
<path stroke="none" fill="#FFFFFF" stroke-width="0.100" d="M 13.850,31.175 C 14.950,30.519 15.500,30.300 16.600,30.300 C 17.700,30.300 18.250,30.519 19.350,31.175 L 19.350,34.675 C 18.250,35.331 17.700,35.550 16.600,35.550 C 15.500,35.550 14.950,35.331 13.850,34.675 L 13.850,31.175 "/>
<path stroke="#000000" fill="none" stroke-width="0.100"  d="M 13.850,31.175 C 14.950,30.519 15.500,30.300 16.600,30.300 C 17.700,30.300 18.250,30.519 19.350,31.175 L 19.350,34.675 C 18.250,35.331 17.700,35.550 16.600,35.550 C 15.500,35.550 14.950,35.331 13.850,34.675 L 13.850,31.175 "/>
<path stroke="#000000" fill="none" stroke-width="0.100"  d="M 13.850,31.175 C 14.950,31.831 15.500,32.050 16.600,32.050 C 17.700,32.050 18.250,31.831 19.350,31.175 "/>
<text x="16.600" y="33.562"  fill="#000000" text-anchor="middle" font-size="0.80" font-family="sans" font-style="normal" font-weight="400">
Stocker</text>
<path stroke="none" fill="#FFFFFF" stroke-width="0.100" d="M 22.640,31.140 C 23.740,30.484 24.290,30.265 25.390,30.265 C 26.490,30.265 27.040,30.484 28.140,31.140 L 28.140,34.640 C 27.040,35.296 26.490,35.515 25.390,35.515 C 24.290,35.515 23.740,35.296 22.640,34.640 L 22.640,31.140 "/>
<path stroke="#000000" fill="none" stroke-width="0.100"  d="M 22.640,31.140 C 23.740,30.484 24.290,30.265 25.390,30.265 C 26.490,30.265 27.040,30.484 28.140,31.140 L 28.140,34.640 C 27.040,35.296 26.490,35.515 25.390,35.515 C 24.290,35.515 23.740,35.296 22.640,34.640 L 22.640,31.140 "/>
<path stroke="#000000" fill="none" stroke-width="0.100"  d="M 22.640,31.140 C 23.740,31.796 24.290,32.015 25.390,32.015 C 26.490,32.015 27.040,31.796 28.140,31.140 "/>
<text x="25.390" y="33.528"  fill="#000000" text-anchor="middle" font-size="0.80" font-family="sans" font-style="normal" font-weight="400">
Finder</text>
<line x1="16.756" y1="29.839" x2="18.569" y2="24.481" stroke="#000000" stroke-width="0.100" />
<polygon fill="#000000" stroke="none" stroke-width="0.100" points="16.636,30.194 16.559,29.640 16.756,29.839 17.033,29.801 "/>
<polygon fill="none" stroke="#000000" stroke-width="0.100"  points="16.636,30.194 16.559,29.640 16.756,29.839 17.033,29.801 "/>
<polygon fill="#000000" stroke="none" stroke-width="0.100" points="18.689,24.126 18.766,24.680 18.569,24.481 18.292,24.519 "/>
<polygon fill="none" stroke="#000000" stroke-width="0.100"  points="18.689,24.126 18.766,24.680 18.569,24.481 18.292,24.519 "/>
<line x1="22.303" y1="24.450" x2="25.162" y2="29.835" stroke="#000000" stroke-width="0.100" />
<polygon fill="#000000" stroke="none" stroke-width="0.100" points="22.127,24.119 22.583,24.443 22.303,24.450 22.141,24.678 "/>
<polygon fill="none" stroke="#000000" stroke-width="0.100"  points="22.127,24.119 22.583,24.443 22.303,24.450 22.141,24.678 "/>
<polygon fill="#000000" stroke="none" stroke-width="0.100" points="25.338,30.166 24.882,29.842 25.162,29.835 25.324,29.607 "/>
<polygon fill="none" stroke="#000000" stroke-width="0.100"  points="25.338,30.166 24.882,29.842 25.162,29.835 25.324,29.607 "/>
<line x1="19.837" y1="33.576" x2="22.153" y2="33.551" stroke="#000000" stroke-width="0.100" />
<polygon fill="#000000" stroke="none" stroke-width="0.100" points="19.462,33.580 19.959,33.325 19.837,33.576 19.964,33.825 "/>
<polygon fill="none" stroke="#000000" stroke-width="0.100"  points="19.462,33.580 19.959,33.325 19.837,33.576 19.964,33.825 "/>
<polygon fill="#000000" stroke="none" stroke-width="0.100" points="22.528,33.547 22.031,33.803 22.153,33.551 22.026,33.303 "/>
<polygon fill="none" stroke="#000000" stroke-width="0.100"  points="22.528,33.547 22.031,33.803 22.153,33.551 22.026,33.303 "/>
<path stroke="none" fill="#FFFFFF" stroke-width="0.100" d="M 47.406,18.325 L 45.431,18.325 C 44.886,18.325 44.444,18.750 44.444,19.275 C 44.444,19.800 44.886,20.225 45.431,20.225 L 47.406,20.225 L 47.406,18.325 "/>
<path stroke="#000000" fill="none" stroke-width="0.100"  d="M 47.406,18.325 L 45.431,18.325 C 44.886,18.325 44.444,18.750 44.444,19.275 C 44.444,19.800 44.886,20.225 45.431,20.225 L 47.406,20.225 L 47.406,18.325 "/>
<text x="46.419" y="19.475"  fill="#000000" text-anchor="middle" font-size="0.80" font-family="sans" font-style="normal" font-weight="400">
Node</text>
<line x1="47.406" y1="19.275" x2="47.600" y2="19.225" stroke="#000000" stroke-width="0.100" />
<path stroke="none" fill="#FFFFFF" stroke-width="0.100" d="M 24.119,18.500 L 26.094,18.500 C 26.639,18.500 27.081,18.881 27.081,19.350 C 27.081,19.819 26.639,20.200 26.094,20.200 L 24.119,20.200 L 24.119,18.500 "/>
<path stroke="#000000" fill="none" stroke-width="0.100"  d="M 24.119,18.500 L 26.094,18.500 C 26.639,18.500 27.081,18.881 27.081,19.350 C 27.081,19.819 26.639,20.200 26.094,20.200 L 24.119,20.200 L 24.119,18.500 "/>
<text x="25.106" y="19.550"  fill="#000000" text-anchor="middle" font-size="0.80" font-family="sans" font-style="normal" font-weight="400">
Node</text>
<line x1="23.750" y1="19.370" x2="24.119" y2="19.350" stroke="#000000" stroke-width="0.100" />
<line x1="28.430" y1="19.344" x2="43.095" y2="19.281" stroke="#000000" stroke-width="0.200" />
<polygon fill="none" stroke="#000000" stroke-width="0.200"  points="27.305,19.349 28.802,18.593 28.430,19.344 28.808,20.093 "/>
<polygon fill="none" stroke="#000000" stroke-width="0.200"  points="44.220,19.276 42.723,20.032 43.095,19.281 42.717,18.532 "/>
</svg>